<?xml version="1.0" encoding="UTF-8"?>
<svg xmlns="http://www.w3.org/2000/svg" xmlns:xlink="http://www.w3.org/1999/xlink" width="200px" height="200px" viewBox="0 0 200 60" version="1.1">
<g id="surface1">
<path style=" stroke:none;fill-rule:nonzero;fill:rgb(0%,51.764706%,100%);fill-opacity:1;" d="M 176.386719 47.460938 L 181.894531 50.339844 L 177.203125 59.238281 L 170.148438 59.238281 Z M 176.386719 47.460938 "/>
<path style=" stroke:none;fill-rule:nonzero;fill:rgb(0%,51.764706%,100%);fill-opacity:1;" d="M 18.238281 2.699219 L 0.25 37.75 L 8.160156 37.75 L 19.09375 16.449219 L 29.167969 37.75 L 36.976562 37.75 L 20.300781 2.699219 Z M 58.035156 37.75 L 63.980469 37.75 L 63.980469 0.550781 L 58.035156 0.550781 L 58.035156 18.800781 C 55.972656 16.800781 53.097656 15.550781 49.976562 15.550781 C 43.628906 15.550781 38.488281 20.699219 38.488281 27 C 38.488281 33.351562 43.628906 38.449219 49.976562 38.449219 C 53.097656 38.449219 55.972656 37.199219 58.035156 35.199219 Z M 45.140625 27 C 45.140625 25.449219 45.746094 24 46.800781 22.851562 C 47.859375 21.75 49.269531 21.148438 50.78125 21.148438 C 52.292969 21.148438 53.753906 21.75 54.8125 22.851562 C 55.871094 24 56.476562 25.449219 56.476562 27 C 56.476562 28.550781 55.871094 30.050781 54.8125 31.148438 C 53.753906 32.25 52.292969 32.851562 50.78125 32.851562 C 49.269531 32.851562 47.859375 32.25 46.800781 31.148438 C 45.746094 30.050781 45.140625 28.550781 45.140625 27 Z M 80.710938 37.75 L 91.539062 16.199219 L 85.292969 16.199219 L 79.800781 27.25 L 74.261719 16.199219 L 68.015625 16.199219 L 78.84375 37.75 Z M 107.308594 31.199219 C 106.304688 32.199219 104.941406 32.800781 103.582031 32.800781 C 102.121094 32.800781 100.761719 32.199219 99.703125 31.050781 C 99.148438 30.449219 98.746094 29.75 98.445312 28.949219 L 114.664062 28.949219 C 114.816406 28.25 114.867188 27.601562 114.867188 26.898438 C 114.867188 20.550781 109.679688 15.449219 103.332031 15.449219 C 96.984375 15.449219 91.792969 20.550781 91.792969 26.898438 C 91.792969 33.199219 96.984375 38.351562 103.332031 38.351562 C 106.804688 38.351562 109.980469 36.800781 112.046875 34.351562 Z M 98.34375 25.148438 C 98.644531 24.25 99.097656 23.398438 99.703125 22.699219 C 100.761719 21.601562 102.121094 21 103.582031 21 C 104.992188 21 106.402344 21.601562 107.410156 22.699219 C 108.066406 23.398438 108.519531 24.25 108.769531 25.148438 Z M 128.226562 16.199219 L 128.226562 8.199219 L 121.828125 8.199219 L 121.828125 16.199219 L 117.292969 16.199219 L 117.292969 22.050781 L 121.828125 22.050781 L 121.828125 37.75 L 128.226562 37.75 L 128.226562 22.050781 L 133.261719 22.050781 L 133.261719 16.199219 Z M 159.085938 3.449219 C 157.222656 1.351562 154.753906 0.199219 152.132812 0.199219 C 149.3125 0.199219 146.742188 1.398438 144.980469 3.550781 C 143.214844 5.699219 142.308594 8.648438 142.308594 12.148438 L 142.308594 16.199219 L 138.179688 16.199219 L 138.179688 22.050781 L 142.308594 22.050781 L 142.308594 37.75 L 148.355469 37.75 L 148.355469 22.050781 L 154.855469 22.050781 L 154.855469 16.199219 L 148.355469 16.199219 L 148.355469 12.148438 C 148.355469 10.75 148.605469 6.199219 152.132812 6.199219 C 153.292969 6.199219 154.148438 6.949219 154.5 7.398438 Z M 161.449219 37.75 L 161.449219 0.550781 L 167.898438 0.550781 L 167.898438 37.75 Z M 173.238281 53.398438 L 180.289062 53.398438 L 199.789062 16.199219 L 192.734375 16.199219 L 186.085938 28.148438 L 178.929688 16.199219 L 171.675781 16.199219 L 182.253906 36.398438 Z M 173.238281 53.398438 "/>
<path style=" stroke:none;fill-rule:nonzero;fill:rgb(17.254902%,18.431373%,21.960784%);fill-opacity:1;" d="M 3.925781 54.558594 L 3.96875 54.574219 C 5.074219 54.949219 5.722656 55.476562 5.722656 56.046875 C 5.722656 56.316406 5.4375 57.109375 4.558594 57.109375 C 4.089844 57.109375 2.835938 57.109375 1.71875 55.925781 L 0.175781 57.363281 C 0.902344 58.128906 1.75 58.65625 2.699219 58.953125 C 3.457031 59.179688 4.089844 59.210938 4.558594 59.210938 C 5.511719 59.210938 6.371094 58.820312 6.992188 58.128906 C 7.519531 57.546875 7.839844 56.78125 7.839844 56.046875 C 7.839844 55.296875 7.550781 54.589844 7.007812 53.988281 C 6.464844 53.40625 5.675781 52.941406 4.664062 52.59375 C 4.574219 52.566406 4.484375 52.535156 4.363281 52.503906 C 3.394531 52.265625 3.019531 51.964844 3.003906 51.425781 C 2.988281 51.078125 3.09375 50.914062 3.183594 50.824219 C 3.457031 50.539062 3.984375 50.433594 4.121094 50.433594 C 5.042969 50.433594 5.480469 50.71875 6.160156 51.15625 L 6.539062 51.394531 L 7.640625 49.609375 L 7.292969 49.386719 C 6.523438 48.890625 5.664062 48.335938 4.121094 48.335938 C 3.578125 48.335938 2.441406 48.558594 1.65625 49.371094 C 1.113281 49.941406 0.839844 50.675781 0.886719 51.515625 C 0.933594 52.519531 1.402344 53.328125 2.246094 53.886719 C 2.851562 54.289062 3.5 54.453125 3.847656 54.546875 Z M 25.410156 48.289062 C 22.386719 48.289062 19.925781 50.734375 19.925781 53.734375 C 19.925781 56.734375 22.386719 59.179688 25.410156 59.179688 C 28.433594 59.179688 30.898438 56.734375 30.898438 53.734375 C 30.898438 50.734375 28.433594 48.289062 25.410156 48.289062 Z M 25.410156 50.449219 C 27.238281 50.449219 28.71875 51.921875 28.71875 53.734375 C 28.71875 55.550781 27.238281 57.019531 25.410156 57.019531 C 23.582031 57.019531 22.101562 55.550781 22.101562 53.734375 C 22.101562 51.921875 23.582031 50.449219 25.410156 50.449219 Z M 45.40625 48.484375 L 43.289062 48.484375 L 43.289062 58.984375 L 49.347656 58.984375 L 49.347656 56.898438 L 45.40625 56.898438 Z M 69.863281 55.113281 L 69.863281 48.484375 L 67.746094 48.484375 L 67.746094 55.128906 L 67.761719 55.128906 C 67.746094 55.65625 67.550781 56.136719 67.171875 56.511719 C 66.792969 56.886719 66.308594 57.078125 65.78125 57.078125 C 65.253906 57.078125 64.753906 56.886719 64.375 56.511719 C 63.996094 56.136719 63.785156 55.640625 63.785156 55.113281 L 63.785156 48.484375 L 61.671875 48.484375 L 61.671875 55.128906 C 61.6875 57.363281 63.515625 59.179688 65.78125 59.179688 C 68.035156 59.179688 69.878906 57.363281 69.878906 55.113281 Z M 81.8125 48.484375 L 81.8125 50.585938 L 84.761719 50.585938 L 84.761719 59 L 86.875 59 L 86.875 50.585938 L 89.808594 50.585938 L 89.808594 48.484375 Z M 102.125 58.984375 L 102.125 48.484375 L 104.242188 48.484375 L 104.242188 58.984375 Z M 121.359375 48.289062 C 118.335938 48.289062 115.875 50.734375 115.875 53.734375 C 115.875 56.734375 118.335938 59.179688 121.359375 59.179688 C 124.382812 59.179688 126.847656 56.734375 126.847656 53.734375 C 126.847656 50.734375 124.382812 48.289062 121.359375 48.289062 Z M 121.359375 50.449219 C 123.1875 50.449219 124.667969 51.921875 124.667969 53.734375 C 124.667969 55.550781 123.1875 57.019531 121.359375 57.019531 C 119.53125 57.019531 118.050781 55.550781 118.050781 53.734375 C 118.050781 51.921875 119.53125 50.449219 121.359375 50.449219 Z M 147.308594 59 L 141.355469 52.863281 L 141.355469 59 L 139.238281 59 L 139.238281 48.484375 L 139.902344 48.484375 L 145.75 54.363281 L 145.75 48.484375 L 147.867188 48.484375 L 147.867188 59 Z M 163.859375 54.558594 L 163.90625 54.574219 C 165.007812 54.949219 165.660156 55.476562 165.660156 56.046875 C 165.660156 56.316406 165.371094 57.109375 164.496094 57.109375 C 164.027344 57.109375 162.773438 57.109375 161.652344 55.925781 L 160.113281 57.363281 C 160.835938 58.128906 161.683594 58.65625 162.636719 58.953125 C 163.390625 59.179688 164.027344 59.210938 164.496094 59.210938 C 165.445312 59.210938 166.308594 58.820312 166.929688 58.128906 C 167.457031 57.546875 167.773438 56.78125 167.773438 56.046875 C 167.773438 55.296875 167.488281 54.589844 166.941406 53.988281 C 166.398438 53.40625 165.613281 52.941406 164.601562 52.59375 C 164.511719 52.566406 164.417969 52.535156 164.296875 52.503906 C 163.332031 52.265625 162.953125 51.964844 162.9375 51.425781 C 162.921875 51.078125 163.027344 50.914062 163.121094 50.824219 C 163.390625 50.539062 163.921875 50.433594 164.058594 50.433594 C 164.980469 50.433594 165.417969 50.71875 166.097656 51.15625 L 166.476562 51.394531 L 167.578125 49.609375 L 167.230469 49.386719 C 166.460938 48.890625 165.597656 48.335938 164.058594 48.335938 C 163.511719 48.335938 162.378906 48.558594 161.59375 49.371094 C 161.050781 49.941406 160.777344 50.675781 160.824219 51.515625 C 160.867188 52.519531 161.335938 53.328125 162.183594 53.886719 C 162.789062 54.289062 163.4375 54.453125 163.785156 54.546875 Z M 163.859375 54.558594 "/>
</g>
</svg>
